{
    "asset" : {
        "generator" : "Khronos glTF Blender I/O v1.1.45",
        "version" : "2.0"
    },
    "scene" : 0,
    "scenes" : [
        {
            "name" : "Scene",
            "nodes" : [
                0,
                1,
                2,
                3
            ]
        }
    ],
    "nodes" : [
        {
            "mesh" : 0,
            "name" : "text",
            "scale" : [
                93.37413787841797,
                93.37413787841797,
                93.37413787841797
            ],
            "translation" : [
                0.8618814945220947,
                -1.5538018941879272,
                0.07140250504016876
            ]
        },
        {
            "mesh" : 1,
            "name" : "slide",
            "translation" : [
                0.0011755824089050293,
                -1.4197933673858643,
                0.0004404116189107299
            ]
        },
        {
            "mesh" : 2,
            "name" : "pad",
            "scale" : [
                93.37413787841797,
                93.37413787841797,
                93.37413787841797
            ],
            "translation" : [
                -3.373476028442383,
                0.2429334968328476,
                -0.00013167134602554142
            ]
        },
        {
            "mesh" : 3,
            "name" : "arrow",
            "scale" : [
                93.37413787841797,
                93.37413787841797,
                93.37413787841797
            ],
            "translation" : [
                -3.3523144721984863,
                0.45376744866371155,
                -0.05637427419424057
            ]
        }
    ],
    "materials" : [
        {
            "doubleSided" : true,
            "emissiveFactor" : [
                0,
                0,
                0
            ],
            "name" : "Black",
            "pbrMetallicRoughness" : {
                "baseColorFactor" : [
                    0,
                    0,
                    0,
                    1
                ],
                "metallicFactor" : 1,
                "roughnessFactor" : 0.5
            }
        },
        {
            "doubleSided" : true,
            "emissiveFactor" : [
                0,
                0,
                0
            ],
            "name" : "Reflective",
            "pbrMetallicRoughness" : {
                "baseColorFactor" : [
                    0.800000011920929,
                    0.800000011920929,
                    0.800000011920929,
                    1
                ],
                "metallicFactor" : 1,
                "roughnessFactor" : 0.4000000059604645
            }
        }
    ],
    "meshes" : [
        {
            "name" : "Curve.003",
            "primitives" : [
                {
                    "attributes" : {
                        "POSITION" : 0,
                        "NORMAL" : 1
                    },
                    "indices" : 2,
                    "material" : 0
                }
            ]
        },
        {
            "name" : "Cube",
            "primitives" : [
                {
                    "attributes" : {
                        "POSITION" : 3,
                        "NORMAL" : 4,
                        "TEXCOORD_0" : 5
                    },
                    "indices" : 6,
                    "material" : 1
                }
            ]
        },
        {
            "name" : "Curve.001",
            "primitives" : [
                {
                    "attributes" : {
                        "POSITION" : 7,
                        "NORMAL" : 8
                    },
                    "indices" : 9,
                    "material" : 0
                }
            ]
        },
        {
            "name" : "Curve.002",
            "primitives" : [
                {
                    "attributes" : {
                        "POSITION" : 10,
                        "NORMAL" : 11
                    },
                    "indices" : 12,
                    "material" : 1
                }
            ]
        }
    ],
    "accessors" : [
        {
            "bufferView" : 0,
            "componentType" : 5126,
            "count" : 4648,
            "max" : [
                0.03228282555937767,
                0.012564323842525482,
                0.002753679407760501
            ],
            "min" : [
                -0.02420875057578087,
                -0.011949017643928528,
                -0.004613370634615421
            ],
            "type" : "VEC3"
        },
        {
            "bufferView" : 1,
            "componentType" : 5126,
            "count" : 4648,
            "type" : "VEC3"
        },
        {
            "bufferView" : 2,
            "componentType" : 5123,
            "count" : 18354,
            "type" : "SCALAR"
        },
        {
            "bufferView" : 3,
            "componentType" : 5126,
            "count" : 392,
            "max" : [
                4.7306013107299805,
                1.4907134771347046,
                0.9273508787155151
            ],
            "min" : [
                -4.732876300811768,
                -1.5308281183242798,
                -0.9255425333976746
            ],
            "type" : "VEC3"
        },
        {
            "bufferView" : 4,
            "componentType" : 5126,
            "count" : 392,
            "type" : "VEC3"
        },
        {
            "bufferView" : 5,
            "componentType" : 5126,
            "count" : 392,
            "type" : "VEC2"
        },
        {
            "bufferView" : 6,
            "componentType" : 5123,
            "count" : 1092,
            "type" : "SCALAR"
        },
        {
            "bufferView" : 7,
            "componentType" : 5126,
            "count" : 104,
            "max" : [
                0.013130657374858856,
                0.0008834967738948762,
                0.008586384356021881
            ],
            "min" : [
                -0.013130657374858856,
                -0.0008834970067255199,
                -0.008586383424699306
            ],
            "type" : "VEC3"
        },
        {
            "bufferView" : 8,
            "componentType" : 5126,
            "count" : 104,
            "type" : "VEC3"
        },
        {
            "bufferView" : 9,
            "componentType" : 5123,
            "count" : 612,
            "type" : "SCALAR"
        },
        {
            "bufferView" : 10,
            "componentType" : 5126,
            "count" : 14,
            "max" : [
                0.006387384608387947,
                0.0004888860275968909,
                0.004863078240305185
            ],
            "min" : [
                -0.005576261319220066,
                -0.0005587268387898803,
                -0.0042566037736833096
            ],
            "type" : "VEC3"
        },
        {
            "bufferView" : 11,
            "componentType" : 5126,
            "count" : 14,
            "type" : "VEC3"
        },
        {
            "bufferView" : 12,
            "componentType" : 5123,
            "count" : 72,
            "type" : "SCALAR"
        }
    ],
    "bufferViews" : [
        {
            "buffer" : 0,
            "byteLength" : 55776,
            "byteOffset" : 0
        },
        {
            "buffer" : 0,
            "byteLength" : 55776,
            "byteOffset" : 55776
        },
        {
            "buffer" : 0,
            "byteLength" : 36708,
            "byteOffset" : 111552
        },
        {
            "buffer" : 0,
            "byteLength" : 4704,
            "byteOffset" : 148260
        },
        {
            "buffer" : 0,
            "byteLength" : 4704,
            "byteOffset" : 152964
        },
        {
            "buffer" : 0,
            "byteLength" : 3136,
            "byteOffset" : 157668
        },
        {
            "buffer" : 0,
            "byteLength" : 2184,
            "byteOffset" : 160804
        },
        {
            "buffer" : 0,
            "byteLength" : 1248,
            "byteOffset" : 162988
        },
        {
            "buffer" : 0,
            "byteLength" : 1248,
            "byteOffset" : 164236
        },
        {
            "buffer" : 0,
            "byteLength" : 1224,
            "byteOffset" : 165484
        },
        {
            "buffer" : 0,
            "byteLength" : 168,
            "byteOffset" : 166708
        },
        {
            "buffer" : 0,
            "byteLength" : 168,
            "byteOffset" : 166876
        },
        {
            "buffer" : 0,
            "byteLength" : 144,
            "byteOffset" : 167044
        }
    ],
    "buffers" : [
        {
            "byteLength" : 167188,
            "uri" : "data:application/octet-stream;base64,"
        }
    ]
}
